<?xml version="1.0" encoding="UTF-8"?>
<svg xmlns="http://www.w3.org/2000/svg" xmlns:xlink="http://www.w3.org/1999/xlink" width="517.5pt" height="517.6pt" viewBox="0 0 517.5 517.6" version="1.1">
<g id="surface1">
<path style=" stroke:none;fill-rule:evenodd;fill:rgb(13.719177%,12.156677%,12.547302%);fill-opacity:1;" d="M 258.796875 -0.0078125 C 401.714844 -0.0078125 517.570313 115.851563 517.570313 258.769531 C 517.570313 401.691406 401.714844 517.550781 258.796875 517.550781 C 115.871094 517.550781 0.0117188 401.691406 0.0117188 258.769531 C 0.0117188 115.851563 115.871094 -0.0078125 258.796875 -0.0078125 Z M 258.796875 -0.0078125 "/>
<path style=" stroke:none;fill-rule:evenodd;fill:rgb(100%,100%,100%);fill-opacity:1;" d="M 258.796875 38.285156 C 380.5625 38.285156 479.277344 137 479.277344 258.769531 C 479.277344 380.542969 380.5625 479.257813 258.796875 479.257813 C 137.019531 479.257813 38.304688 380.542969 38.304688 258.769531 C 38.304688 137 137.019531 38.285156 258.796875 38.285156 Z M 258.796875 38.285156 "/>
<path style=" stroke:none;fill-rule:evenodd;fill:rgb(13.719177%,12.156677%,12.547302%);fill-opacity:1;" d="M 282.941406 326.671875 C 284.484375 325.980469 291.285156 325.507813 293.683594 325.226563 C 295.558594 325.007813 297.171875 324.75 299.152344 324.585938 C 301.046875 324.429688 302.902344 323.953125 304.679688 323.8125 C 309.257813 323.445313 311.464844 322.96875 315.648438 322.5625 L 326.941406 321.386719 C 332.421875 320.402344 338.03125 320.132813 343.453125 319.542969 C 345.320313 319.335938 346.90625 318.863281 348.933594 318.691406 C 352.597656 318.382813 356.289063 317.921875 360.015625 317.539063 C 361.964844 317.339844 363.480469 316.929688 365.371094 316.785156 L 371.148438 316.167969 C 371.847656 318.023438 370.59375 324.65625 370.445313 327.367188 C 370.34375 329.222656 369.757813 330.890625 369.566406 332.824219 C 369.378906 334.726563 369.128906 336.648438 368.90625 338.457031 C 368.683594 340.273438 368.574219 342.449219 368.21875 344.105469 C 368.023438 345.015625 367.757813 345.71875 367.609375 346.652344 C 367.433594 347.746094 367.5625 348.417969 367.273438 349.488281 L 365.296875 360.164063 C 364.425781 364.210938 363.785156 366.320313 362.675781 370.199219 C 361.910156 372.882813 362.050781 372.6875 359.117188 372.972656 C 352.710938 373.597656 347.769531 373.804688 341.394531 374.273438 C 337.664063 374.550781 333.273438 374.558594 329.628906 375.113281 C 325.703125 375.710938 321.761719 375.515625 317.789063 375.925781 C 313.898438 376.328125 309.878906 376.367188 305.976563 376.792969 C 302.371094 377.183594 297.941406 377.578125 294.335938 377.757813 C 292.234375 377.867188 290.382813 377.769531 288.28125 378.042969 C 284.785156 378.5 285.90625 377.378906 285.640625 374.625 C 284.878906 366.765625 285.050781 358.609375 284.253906 350.730469 C 283.851563 346.769531 283.757813 342.753906 283.59375 338.761719 C 283.4375 335.011719 282.648438 330.292969 282.941406 326.671875 Z M 361.296875 187.214844 C 362.761719 186.921875 364.871094 187.160156 366.003906 187.78125 C 367.515625 188.609375 367.742188 189.433594 367.570313 191.773438 C 367.324219 195.125 366.960938 198.03125 366.089844 201.328125 C 365.714844 202.757813 365.136719 204.234375 364.863281 205.578125 C 364.351563 208.082031 364.253906 207.5625 363.613281 209.820313 L 358.046875 226.171875 C 355.511719 232.175781 356.839844 232.175781 353.171875 232.246094 L 326.613281 233.066406 C 324.769531 232.875 326.273438 230.664063 326.507813 229.226563 C 327.015625 226.128906 327.488281 222.828125 328.261719 220.015625 C 329.050781 217.144531 329.230469 213.628906 329.972656 210.75 C 330.679688 207.992188 331.238281 204.589844 331.777344 201.59375 C 332.773438 196.03125 332.589844 197.695313 336.800781 195.648438 C 339.117188 194.523438 341.890625 193.320313 344.453125 192.347656 C 349.773438 190.324219 354.964844 188.488281 361.296875 187.214844 Z M 291.734375 208.675781 C 292.164063 209.136719 292.078125 209.359375 291.867188 210.171875 C 291.753906 210.613281 291.636719 211.078125 291.507813 211.515625 L 286.816406 228.332031 C 286.164063 231.511719 283.652344 238.921875 282.945313 242.175781 C 282.648438 243.558594 282.59375 243.695313 281.4375 244.253906 C 278.671875 245.59375 270.925781 247.574219 267.71875 248.246094 C 260.09375 249.847656 251.644531 251.089844 244.050781 248.585938 C 243.566406 248.425781 243.382813 248.304688 242.824219 248.136719 C 238.414063 246.824219 234.527344 244.773438 230.679688 242.355469 C 229.960938 241.90625 229.222656 241.535156 228.546875 241.101563 C 226.941406 240.078125 225.824219 239.144531 224.359375 238.136719 C 218.421875 234.0625 220.636719 234.792969 218.183594 229.945313 C 217.363281 228.324219 216.449219 226.988281 215.476563 225.707031 C 212.402344 221.644531 208.507813 219.855469 202.929688 220.992188 C 202.246094 221.132813 201.964844 221.160156 201.449219 221.417969 C 197.8125 223.246094 199.136719 220.660156 199.214844 216.875 C 199.496094 202.988281 200.113281 189.019531 200.277344 175.117188 C 200.335938 170.558594 200.90625 166.253906 200.910156 161.617188 C 200.914063 152.390625 201.507813 143.058594 201.628906 133.777344 C 201.691406 129.171875 201.84375 124.480469 201.960938 119.867188 C 202.101563 113.9375 202.144531 112.347656 199.578125 108.136719 C 191.628906 95.097656 166.96875 95.09375 149.011719 98.332031 C 146.464844 98.792969 145.90625 99.488281 144.335938 100.824219 C 138.171875 106.058594 132.0625 112.929688 139.949219 119.660156 C 140.253906 119.921875 140.628906 120.148438 140.929688 120.382813 C 141.753906 121.019531 141.96875 121.300781 142.949219 121.9375 C 143.996094 122.621094 146.128906 124.164063 146.886719 124.964844 C 151.246094 129.5625 153.589844 138.5625 155.679688 144.628906 C 158.78125 153.625 156.722656 187.863281 156.421875 199.144531 C 156.175781 208.378906 156.097656 217.628906 155.648438 226.828125 C 155.199219 235.9375 155.257813 245.046875 154.414063 254.097656 C 153.695313 261.75 153.921875 273.261719 153.445313 281.605469 C 153.0625 288.339844 152.84375 295.136719 152.253906 301.855469 C 152.054688 304.050781 152.246094 306.566406 152.171875 308.816406 C 152.019531 313.285156 151.523438 317.8125 151.378906 322.300781 C 151.230469 326.921875 151.074219 331.320313 150.847656 335.90625 C 150.628906 340.390625 150.128906 345.066406 150.089844 349.507813 C 150.050781 354.058594 149.976563 358.707031 149.722656 363.207031 C 149.460938 367.933594 149.835938 372.679688 149.878906 377.347656 C 149.929688 382.027344 150.574219 385.816406 151.285156 390.066406 C 153.203125 401.550781 158.519531 411.234375 168.636719 415.519531 C 178.84375 419.839844 187.402344 418.933594 191.941406 408.238281 C 194.445313 402.34375 193.785156 395.730469 193.964844 388.941406 C 194.210938 379.820313 195.015625 370.644531 195.007813 361.53125 C 194.996094 347.628906 196.078125 333.90625 196.058594 319.988281 C 196.054688 315.554688 196.3125 310.566406 196.546875 306.109375 C 196.777344 301.625 196.878906 297.058594 197.097656 292.582031 C 197.285156 288.761719 197.222656 266.78125 197.839844 265.03125 C 198.773438 265.101563 198.910156 265.925781 199.15625 266.910156 C 200.203125 271.070313 201.855469 274.976563 203.300781 279.015625 L 208.734375 292.976563 C 210.703125 297.78125 215.351563 308.914063 218.28125 312.734375 C 218.726563 313.316406 219.234375 313.949219 219.691406 314.5 C 223.480469 319.027344 232.503906 321.128906 238.214844 321.90625 C 239.183594 322.039063 239.894531 322.269531 240.972656 322.328125 C 244.0625 322.492188 244.007813 321.761719 244.140625 332.015625 C 244.175781 334.738281 244.628906 338.175781 244.921875 340.9375 C 245.203125 343.714844 245.199219 347.515625 245.195313 350.351563 C 245.1875 353.316406 245.460938 356.441406 245.558594 359.417969 C 245.773438 365.746094 245.738281 372.472656 245.683594 378.820313 L 245.40625 397.800781 C 245.390625 403.09375 244.175781 402.582031 246.835938 405.652344 C 249.195313 408.390625 251.597656 410.492188 254.199219 412.828125 C 262.191406 420.003906 277.089844 431.085938 283.976563 416.324219 C 284.199219 415.839844 284.496094 415.328125 284.703125 414.746094 C 284.90625 414.171875 284.933594 413.40625 285.222656 412.9375 C 285.824219 411.96875 288.09375 412.425781 289.382813 412.246094 C 290.691406 412.0625 292.355469 411.777344 293.6875 411.722656 C 299.785156 411.476563 305.578125 410.476563 311.628906 410.226563 C 317.410156 409.988281 323.402344 409.394531 329.226563 408.660156 C 332.183594 408.289063 335.140625 408.191406 338.070313 407.832031 C 341.070313 407.464844 344.015625 407.464844 347.046875 407.082031 C 349.9375 406.714844 352.738281 406.417969 355.695313 406.234375 C 361.675781 405.859375 367.585938 405.152344 373.429688 404.59375 C 374.984375 404.445313 376.378906 404.476563 377.972656 404.273438 L 386.902344 403.496094 C 388.882813 403.316406 389.378906 402.707031 390.265625 404.347656 C 395.117188 413.324219 399.40625 403.902344 400.589844 398.191406 C 400.867188 396.824219 401.136719 395.484375 401.472656 394.222656 C 402.140625 391.703125 402.378906 388.835938 403.066406 386.339844 L 406.523438 370.398438 C 406.886719 368.085938 407.796875 364.859375 408.355469 362.519531 C 408.984375 359.882813 409.492188 357.472656 410.15625 354.839844 C 410.796875 352.28125 411.28125 349.515625 412.03125 347.011719 C 412.769531 344.546875 413.039063 341.625 413.898438 339.171875 C 414.335938 337.941406 414.480469 336.632813 414.828125 335.257813 L 417.660156 323.75 C 418.324219 321.199219 419.007813 318.582031 419.605469 316 C 420.144531 313.679688 421.628906 310.3125 420.628906 308.207031 C 418.8125 304.378906 415.214844 299.972656 412.578125 297.058594 C 405.527344 289.257813 392.949219 280.292969 380.113281 281.777344 C 376.289063 282.21875 370.878906 282.648438 367.285156 283.496094 C 364.464844 284.164063 357.421875 284.503906 354.613281 285.167969 C 351.949219 285.792969 349.046875 286.164063 346.230469 286.484375 C 343.214844 286.832031 340.6875 287.449219 337.863281 287.832031 C 335.019531 288.214844 332.175781 288.542969 329.320313 288.972656 L 321.089844 290.234375 C 318.425781 290.824219 315.441406 291.039063 312.714844 291.554688 C 311.171875 291.847656 309.871094 291.839844 308.394531 292.085938 C 304.691406 292.699219 290.152344 294.773438 287.691406 295.429688 L 271.015625 297.941406 C 268.230469 298.359375 265.28125 298.65625 262.507813 299.136719 C 261.097656 299.382813 255.367188 300.824219 254.394531 300.246094 C 253.339844 299.621094 250.304688 290.527344 249.855469 288.976563 L 249.085938 285.734375 C 248.523438 282.796875 247.472656 277.886719 248.769531 275.3125 C 249.796875 275.246094 250.085938 275.699219 250.589844 276.210938 C 251.898438 277.539063 253.546875 278.359375 255.164063 279.230469 C 257.460938 280.460938 260.089844 281.46875 262.726563 281.996094 C 266.132813 282.679688 268.796875 282.78125 272.398438 282.675781 C 281.378906 282.40625 289.671875 279.4375 298.507813 277.980469 C 301.464844 277.492188 304.164063 276.828125 307.175781 276.320313 C 308.605469 276.078125 310.132813 275.921875 311.574219 275.65625 C 313.015625 275.386719 314.140625 275 315.753906 274.78125 C 318.867188 274.351563 321.691406 273.9375 324.828125 273.496094 C 327.632813 273.105469 330.90625 272.324219 333.753906 272.085938 C 337.035156 271.808594 339.777344 271.265625 342.855469 270.875 C 344.484375 270.667969 346.070313 270.753906 347.605469 270.550781 L 361.597656 269.160156 C 364.824219 268.914063 368.171875 268.894531 371.351563 268.648438 C 381.265625 267.890625 391.742188 268.664063 401.671875 268.957031 C 404.863281 269.050781 407.722656 269.804688 410.953125 269.992188 C 412.546875 270.082031 413.808594 270.507813 415.554688 270.691406 C 418.394531 270.992188 421.136719 271.738281 423.898438 272.449219 C 427.871094 273.476563 431.855469 274.558594 435.589844 276.15625 C 437.734375 277.074219 440.488281 278.652344 443.679688 278.074219 C 446.304688 277.597656 448.277344 275.410156 448.914063 272.972656 C 450.539063 266.746094 449.640625 262.414063 445.160156 257.933594 C 436.492188 249.269531 423.679688 243.757813 412.550781 239.089844 L 405.066406 236.242188 C 402.929688 235.382813 399.84375 234.644531 397.730469 233.453125 C 397.613281 232.480469 398.007813 232.203125 398.378906 231.507813 C 399.324219 229.710938 400.050781 227.550781 400.828125 225.730469 L 405.460938 213.898438 C 405.90625 212.613281 406.496094 211.230469 407.003906 209.96875 L 409.84375 201.859375 C 410.320313 200.492188 410.6875 198.898438 411.109375 197.621094 C 412.578125 193.1875 413.734375 188.394531 412.878906 183.722656 C 411.347656 175.441406 404.785156 165.125 399.882813 158.546875 C 396.546875 154.070313 398.101563 155.03125 393.023438 155.265625 C 390.960938 155.359375 390.09375 155.703125 388.285156 156.027344 C 386.671875 156.3125 384.878906 156.300781 383.269531 156.511719 L 373.511719 157.519531 C 371.824219 157.796875 370.597656 158.113281 368.765625 158.234375 C 367.101563 158.347656 365.570313 158.765625 363.921875 158.875 C 362.238281 158.988281 360.515625 159.171875 358.863281 159.3125 C 357.128906 159.460938 355.753906 159.863281 354.171875 160.078125 C 352.519531 160.304688 350.777344 160.285156 349.15625 160.554688 C 347.710938 160.796875 340.546875 161.707031 339.636719 161.445313 C 339.222656 160.078125 340.085938 156.410156 340.421875 154.777344 C 341.066406 151.703125 341.34375 144.871094 341.878906 141.054688 C 342.046875 139.847656 342.296875 138.992188 342.441406 137.808594 C 342.601563 136.535156 342.503906 135.390625 342.628906 134.203125 C 342.753906 133.007813 343.578125 132.808594 344.753906 132.539063 C 345.902344 132.273438 346.746094 132.203125 347.84375 131.839844 C 349.609375 131.257813 351.972656 130.765625 353.933594 130.335938 C 359.089844 129.199219 364.421875 127.707031 369.675781 126.910156 C 370.828125 126.734375 371.761719 126.433594 372.839844 126.253906 C 375.113281 125.871094 376.921875 125.363281 379.328125 125.160156 C 381.796875 124.949219 384.003906 124.558594 386.097656 125.523438 C 392.960938 128.675781 410.21875 140.546875 404.367188 121.597656 C 402.878906 116.773438 400.902344 112.207031 398.589844 108.179688 C 394.722656 101.457031 388.433594 94.238281 380.96875 91.644531 C 379.03125 90.972656 377.09375 90.34375 375.003906 90.007813 C 371.402344 89.433594 365.03125 90.613281 361.585938 91.59375 C 355.628906 93.285156 349.777344 94.847656 343.929688 96.722656 C 338.089844 98.597656 332.550781 100.242188 326.746094 102.304688 C 325.699219 102.675781 324.796875 102.984375 323.691406 103.257813 C 322.429688 103.574219 321.851563 103.902344 320.894531 104.246094 C 319.054688 104.910156 317.097656 105.414063 315.160156 106.101563 C 311.277344 107.484375 307.539063 108.453125 303.660156 109.800781 L 299.367188 111.183594 C 298.613281 111.347656 298.519531 111.324219 297.863281 111.589844 L 280.242188 116.738281 C 270.980469 119.449219 263.683594 119.839844 254.425781 116.75 C 250.425781 115.417969 247.136719 114.097656 243.53125 112.449219 C 242.605469 112.023438 241.71875 111.613281 240.867188 111.320313 C 238.050781 110.347656 235.199219 107.703125 233.367188 111.199219 C 228.011719 121.414063 234.511719 136.707031 243.675781 142.890625 C 252.171875 148.617188 262.339844 151.476563 272.820313 151.695313 C 277.050781 151.785156 282.945313 151.714844 287.039063 150.734375 C 291.847656 149.582031 294.214844 148.742188 298.570313 147.09375 C 300.703125 146.289063 302.808594 144.683594 303.714844 144.851563 C 304.230469 146.078125 302.230469 154.933594 301.878906 156.71875 C 301.503906 158.613281 301.171875 160.832031 300.90625 162.714844 C 300.648438 164.59375 300.140625 166.519531 299.835938 168.386719 C 299.628906 169.59375 299.101563 173.394531 298.632813 174.144531 C 298.191406 174.855469 297.019531 174.957031 295.980469 175.078125 C 294.722656 175.226563 294.328125 175.441406 293.28125 175.742188 L 270.09375 180.207031 C 268.136719 180.402344 266.171875 180.839844 264.070313 181.121094 C 262.019531 181.394531 260.128906 181.6875 258.144531 181.960938 C 252.355469 182.757813 251.367188 181.917969 247.210938 179.855469 C 244.753906 178.640625 240.347656 176.519531 236.980469 176.320313 C 234.027344 176.140625 233.265625 176.53125 232.460938 178.832031 C 231.84375 180.574219 232.585938 182.746094 233.058594 184.5 C 234.066406 188.195313 235.527344 191.082031 237.363281 193.910156 C 241.007813 199.515625 246.03125 203.800781 251.347656 207.554688 C 254.445313 209.746094 256.902344 210.976563 260.195313 212.628906 C 268.863281 216.976563 270.609375 214.261719 278.746094 212.253906 L 286.839844 210.015625 C 287.636719 209.792969 291.144531 208.296875 291.734375 208.675781 Z M 291.734375 208.675781 "/>
<path style=" stroke:none;fill-rule:evenodd;fill:rgb(13.719177%,12.156677%,12.547302%);fill-opacity:1;" d="M 146.777344 220.03125 C 147.003906 217.382813 147.476563 207.65625 146.046875 206.152344 C 144.796875 204.832031 138.609375 201.859375 136.28125 201.160156 C 126.453125 198.214844 120.753906 198.257813 110.980469 201.171875 C 107.828125 202.113281 108.878906 203.066406 108.878906 206.535156 C 108.878906 208.785156 108.796875 211.566406 108.609375 213.757813 C 108.414063 216.066406 108.402344 218.441406 108.179688 220.699219 C 107.960938 222.960938 107.71875 225.253906 107.527344 227.417969 L 105.890625 240.574219 C 104.820313 245.367188 103.8125 251.808594 102.671875 255.90625 C 102.378906 256.953125 102.226563 257.976563 102.011719 259.042969 C 101.566406 261.25 97.679688 273.941406 96.828125 276.003906 C 96.140625 277.664063 95.910156 279.117188 94.730469 281.503906 C 94.226563 282.523438 94.179688 283.296875 93.734375 284.300781 C 93.367188 285.125 93.011719 285.90625 92.640625 286.78125 C 92.230469 287.742188 91.929688 288.578125 91.503906 289.457031 C 91.085938 290.304688 90.667969 291.007813 90.316406 291.839844 C 87.429688 298.683594 80.675781 309.714844 76.589844 315.226563 C 69.300781 325.046875 69.726563 320.703125 70.378906 330.316406 C 70.527344 332.488281 71.03125 334.609375 71.476563 336.601563 C 73.429688 345.304688 76.613281 351.398438 81.695313 356.113281 C 85.058594 359.230469 90.953125 360.246094 95.925781 358.175781 C 101.964844 355.667969 106.308594 351.734375 110.464844 346.78125 C 116.039063 340.140625 123.5625 326.484375 126.085938 318.125 C 126.628906 316.332031 127.515625 314.539063 128.078125 312.53125 C 128.628906 310.585938 129.214844 308.683594 129.796875 306.855469 L 133.066406 295.378906 C 133.507813 293.496094 134.015625 291.070313 134.585938 289.289063 C 136.039063 284.722656 136.296875 282.171875 137.644531 277.605469 L 138.988281 271.558594 C 140.234375 266.480469 141.203125 261.054688 142.148438 255.949219 C 142.339844 254.914063 142.671875 254.058594 142.859375 253.078125 C 143.261719 250.988281 143.496094 248.824219 143.855469 246.695313 C 144.0625 245.476563 144.097656 244.472656 144.269531 243.3125 C 144.425781 242.238281 144.691406 241.410156 144.859375 240.308594 C 146.054688 232.484375 146.121094 227.800781 146.777344 220.03125 Z M 146.777344 220.03125 "/>
</g>
</svg>
